<?xml version="1.0" standalone="no"?>
<!DOCTYPE svg PUBLIC "-//W3C//DTD SVG 20010904//EN"
 "http://www.w3.org/TR/2001/REC-SVG-20010904/DTD/svg10.dtd">
<svg version="1.0" xmlns="http://www.w3.org/2000/svg"
 width="700.000000pt" height="700.000000pt" viewBox="0 0 700.000000 700.000000"
 preserveAspectRatio="xMidYMid meet">
<metadata>
Created by potrace 1.14, written by Peter Selinger 2001-2017
</metadata>
<g transform="translate(0.000000,700.000000) scale(0.100000,-0.100000)"
fill="#000000" stroke="none">
<path d="M0 5376 l0 -1613 32 -34 c17 -19 56 -61 87 -94 31 -33 111 -119 177
-190 67 -72 136 -146 154 -165 18 -19 81 -87 140 -150 59 -63 122 -131 140
-150 18 -19 81 -87 140 -150 59 -63 120 -128 135 -145 15 -16 73 -79 130 -140
56 -60 117 -126 135 -145 18 -19 60 -64 94 -100 33 -36 113 -121 176 -189 63
-69 131 -141 150 -161 19 -20 60 -63 90 -96 30 -32 109 -117 176 -189 67 -71
131 -140 141 -151 10 -12 72 -79 139 -150 66 -71 145 -155 175 -187 30 -33 70
-76 89 -96 19 -21 85 -91 145 -156 61 -65 126 -135 145 -155 19 -20 62 -66 94
-101 51 -55 186 -200 316 -339 88 -94 241 -259 272 -293 l35 -37 64 68 c35 37
116 124 179 192 63 68 130 139 149 159 90 97 241 259 264 284 14 16 73 79 130
140 58 62 119 128 137 147 35 38 236 253 336 360 33 36 90 97 126 135 36 39
80 86 98 105 18 19 78 85 135 145 56 61 117 126 135 145 71 76 238 255 285
305 28 29 87 93 131 142 45 48 99 106 120 129 22 22 86 91 144 154 58 62 125
134 150 160 25 27 92 99 150 161 58 62 139 149 180 194 41 44 107 113 145 155
39 41 98 104 131 140 34 36 88 94 120 129 33 35 87 93 121 130 l62 66 0 1620
1 1620 -36 -40 c-20 -22 -89 -96 -153 -164 -64 -68 -129 -139 -146 -156 -16
-18 -79 -85 -139 -149 -60 -64 -116 -125 -125 -135 -9 -10 -72 -78 -141 -152
-69 -73 -156 -167 -195 -208 -38 -42 -99 -107 -135 -146 -36 -38 -91 -97 -122
-130 -111 -120 -132 -142 -233 -250 -57 -60 -116 -123 -131 -140 -15 -16 -78
-84 -140 -150 -61 -66 -126 -136 -144 -155 -18 -19 -78 -84 -135 -145 -57 -60
-120 -128 -140 -150 -20 -22 -63 -67 -94 -100 -31 -33 -110 -119 -176 -190
-66 -71 -136 -146 -155 -166 -46 -47 -241 -257 -260 -279 -13 -15 -185 -199
-295 -316 -22 -24 -60 -65 -85 -91 -25 -27 -95 -103 -157 -168 -61 -66 -121
-131 -133 -145 l-21 -24 -62 66 c-61 66 -218 234 -287 308 -19 21 -84 91 -145
156 -101 109 -182 196 -260 278 -27 29 -194 209 -275 296 -18 19 -83 89 -145
155 -62 66 -123 132 -136 146 -13 15 -72 78 -130 140 -59 63 -121 130 -139
149 -47 51 -255 274 -327 350 -34 36 -70 75 -80 86 -10 12 -70 76 -133 144
-125 133 -135 144 -286 306 -56 60 -119 128 -140 150 -22 23 -86 93 -144 155
-58 62 -135 145 -171 184 -120 127 -140 149 -228 244 -47 52 -106 115 -131
140 -101 105 -265 284 -268 292 -2 5 -8 9 -13 9 -5 0 -9 -642 -9 -1614z"/>
<path d="M6988 3141 c-1 -5 -39 -47 -83 -93 -69 -73 -244 -259 -354 -377 -85
-91 -280 -299 -319 -340 -24 -25 -96 -102 -160 -170 -65 -69 -128 -137 -142
-151 -14 -15 -77 -82 -140 -150 -63 -68 -126 -135 -140 -150 -47 -49 -287
-305 -321 -341 -19 -20 -86 -92 -150 -160 -64 -68 -131 -140 -149 -159 -18
-19 -83 -89 -145 -155 -62 -66 -125 -133 -140 -150 -15 -16 -62 -66 -104 -110
-42 -44 -100 -105 -127 -136 l-51 -56 0 -221 -1 -222 1269 0 1269 0 0 1575 c0
866 -2 1575 -4 1575 -2 0 -6 -4 -8 -9z"/>
<path d="M0 1571 l0 -1571 1268 0 1269 0 0 223 1 223 -62 65 c-80 85 -286 304
-520 554 -66 71 -155 166 -197 210 -125 132 -206 218 -235 250 -25 28 -228
245 -299 319 -16 18 -88 95 -160 171 -71 77 -164 175 -206 220 -42 44 -109
116 -150 159 -100 107 -208 224 -239 256 -200 212 -293 311 -320 340 -83 89
-131 139 -140 145 -7 4 -10 -522 -10 -1564z"/>
</g>
</svg>
