<svg width="34" height="40" viewBox="0 0 34 40" fill="none" xmlns="http://www.w3.org/2000/svg">
<path fill-rule="evenodd" clip-rule="evenodd" d="M33.1208 30.938C32.5472 32.2733 31.8389 33.5465 31.0068 34.738C30.2236 35.9324 29.3104 37.0361 28.2838 38.0291C27.3506 38.9619 26.102 39.5116 24.7838 39.5701C23.6671 39.521 22.5702 39.259 21.5519 38.798C20.4524 38.3192 19.2706 38.058 18.0718 38.0291C16.8408 38.0533 15.6261 38.3144 14.4938 38.798C13.5156 39.2395 12.4706 39.5143 11.4019 39.611C10.0431 39.5947 8.75024 39.0231 7.82385 38.0291C6.75256 37.0011 5.79761 35.8586 4.97583 34.6221C3.6925 32.7816 2.67859 30.7672 1.96484 28.6401C1.15039 26.35 0.7229 23.9404 0.699829 21.5101C0.635376 19.1262 1.22693 16.7706 2.40991 14.7C3.27148 13.2044 4.50464 11.9565 5.98987 11.077C7.45398 10.201 9.12463 9.72955 10.8308 9.71106C12.1191 9.78735 13.3851 10.0819 14.5748 10.582C15.5231 10.9997 16.5214 11.2931 17.5448 11.4551C18.6732 11.2197 19.7761 10.8751 20.8379 10.426C22.2572 9.849 23.7825 9.57806 25.3138 9.63104C28.2704 9.70758 31.0226 11.1567 32.7588 13.551C29.9875 15.0239 28.287 17.9367 28.3668 21.074C28.3372 23.4525 29.3295 25.7294 31.0918 27.327C31.8827 28.0837 32.8057 28.6891 33.8148 29.113C33.5962 29.7464 33.3649 30.3537 33.1208 30.9351V30.938ZM25.5348 1.08704C25.5087 3.12036 24.7446 5.07495 23.3849 6.58698C21.6569 8.60706 19.5668 9.77405 17.3008 9.58704C17.2704 9.3399 17.255 9.09106 17.2549 8.84204C17.3235 6.77539 18.1332 4.80237 19.5358 3.28308C20.3142 2.41064 21.259 1.70245 22.3148 1.20007C23.3033 0.689636 24.3845 0.383545 25.4938 0.300049C25.522 0.561096 25.5356 0.823486 25.5348 1.08606V1.08704Z" fill="white"/>
</svg>
