<svg width="34" height="25" viewBox="0 0 34 25" fill="none" xmlns="http://www.w3.org/2000/svg">
<g opacity="0.5">
<path fill-rule="evenodd" clip-rule="evenodd" d="M17.2 24.8C14.5369 24.8184 11.911 24.174 9.55896 22.925C7.61999 21.8712 5.88879 20.4734 4.44995 18.8C2.88513 17.015 1.61877 14.9889 0.699951 12.8C1.62085 10.6123 2.88696 8.58655 4.44995 6.80005C5.88879 5.12668 7.61999 3.72891 9.55896 2.67505C11.911 1.42606 14.5369 0.781738 17.2 0.800049C19.863 0.781738 22.4889 1.42606 24.8409 2.67505C26.7799 3.72891 28.5111 5.12668 29.95 6.80005C31.5148 8.58514 32.7811 10.6112 33.7 12.8C32.7791 14.9878 31.5129 17.0135 29.95 18.8C28.5111 20.4734 26.7799 21.8712 24.8409 22.925C22.4889 24.174 19.863 24.8184 17.2 24.8ZM17.2 3.80005C9.37292 3.80005 5.35291 10.1 3.98694 12.8051C5.33789 15.509 9.33093 21.8 17.2 21.8C25.026 21.8 29.048 15.5001 30.4139 12.794C29.064 10.0911 25.073 3.80005 17.2 3.80005ZM17.2 18.8C13.8862 18.8 11.2 16.1138 11.2 12.8C11.2 9.48633 13.8862 6.80005 17.2 6.80005C20.5137 6.80005 23.2 9.48633 23.2 12.8C23.1968 16.1122 20.5125 18.7967 17.2001 18.8H17.2ZM17.2 9.80005C15.5431 9.80005 14.2 11.1432 14.2 12.8C14.2 14.4569 15.5431 15.8 17.2 15.8C18.8568 15.8 20.2 14.4569 20.2 12.8C20.2 11.1432 18.8568 9.80005 17.2 9.80005Z" fill="white"/>
</g>
</svg>
