<svg width="36" height="35" viewBox="0 0 36 35" fill="none" xmlns="http://www.w3.org/2000/svg">
<path fill-rule="evenodd" clip-rule="evenodd" d="M18.0389 0.300049C8.96805 0.293213 1.427 7.28314 0.746704 16.3284C0.0663758 25.3738 6.47708 33.413 15.4469 34.7631L15.4469 22.2341H11.1569V17.676H15.4479V14.6431C15.4479 9.62103 17.8939 7.41803 22.0679 7.41803C23.257 7.4021 24.4455 7.47424 25.6239 7.63403L25.6239 11.613H22.7769C21.0059 11.613 20.3869 13.2921 20.3869 15.186V17.6771H25.5789L24.8789 22.2341H20.3859V34.8C29.4154 33.5645 35.9451 25.5464 35.3265 16.4539C34.7079 7.36121 27.1526 0.301331 18.0389 0.300049H18.0389Z" fill="#4267B2"/>
</svg>
