<svg width="35" height="35" viewBox="0 0 35 35" fill="none" xmlns="http://www.w3.org/2000/svg">
<path fill-rule="evenodd" clip-rule="evenodd" d="M34.2199 17.7909C34.2208 16.6284 34.1206 15.4661 33.9203 14.3189L17.7979 14.3169V20.9009H27.0329C26.6513 23.0283 25.4165 24.907 23.6148 26.101L23.6149 30.3729H29.1249C32.528 27.0895 34.3796 22.5171 34.2199 17.7909Z" fill="#4285F4"/>
<path fill-rule="evenodd" clip-rule="evenodd" d="M17.7979 34.4961C21.9633 34.6129 26.0165 33.1366 29.131 30.368L23.6189 26.097C20.9307 27.8165 17.6005 28.2026 14.5901 27.1437C11.5798 26.0848 9.2247 23.6989 8.20493 20.675H2.51895V25.0751C5.42184 30.8509 11.3336 34.4961 17.7979 34.4961Z" fill="#34A853"/>
<path fill-rule="evenodd" clip-rule="evenodd" d="M8.19791 20.675C7.48178 18.5518 7.48178 16.2522 8.19791 14.129V9.72498H2.51889C0.0939636 14.5557 0.0939636 20.2482 2.51889 25.079L8.19791 20.675Z" fill="#FBBC04"/>
<path fill-rule="evenodd" clip-rule="evenodd" d="M17.7979 7.06702C20.2359 7.02759 22.5916 7.94812 24.3569 9.63L29.2379 4.74902C26.1422 1.84436 22.0426 0.250427 17.7979 0.300964C11.3328 0.299927 5.4202 3.94635 2.51895 9.724L8.19791 14.124C9.55435 9.95642 13.4155 7.11652 17.7979 7.06299V7.06702Z" fill="#EA4335"/>
</svg>
