<svg width="27" height="32" viewBox="0 0 27 32" fill="none" xmlns="http://www.w3.org/2000/svg">
<g opacity="0.5">
<path fill-rule="evenodd" clip-rule="evenodd" d="M13.1519 15.4C15.0934 15.4268 16.9603 14.6532 18.3139 13.261C19.7057 11.9077 20.4793 10.0412 20.4529 8.10001C20.4795 6.15854 19.7059 4.29166 18.3139 2.93802C15.4631 0.0877075 10.8416 0.0877075 7.99088 2.93802C6.59872 4.29156 5.8251 6.15851 5.85184 8.10001C5.8251 10.0416 6.59872 11.9085 7.99088 13.2621C9.34451 14.6534 11.2109 15.4265 13.1519 15.4ZM9.24686 4.19501C10.2825 3.15891 11.6874 2.57681 13.1524 2.57681C14.6173 2.57681 16.0222 3.15891 17.0579 4.19501C18.1176 5.21445 18.7041 6.62979 18.6759 8.10001C18.7044 9.57056 18.1179 10.9863 17.0579 12.006C16.0222 13.0421 14.6173 13.6242 13.1524 13.6242C11.6874 13.6242 10.2825 13.0421 9.24686 12.006C8.18637 10.9866 7.59952 9.57077 7.62784 8.10001C7.59952 6.62927 8.18637 5.21344 9.24686 4.19403V4.19501Z" fill="white"/>
<path d="M18.3139 13.261L18.0698 13.01L18.0629 13.017L18.3139 13.261ZM20.4529 8.10001L20.1028 8.0952L20.1029 8.10478L20.4529 8.10001ZM18.3139 2.93802L18.0664 3.18555L18.0699 3.18894L18.3139 2.93802ZM7.99088 2.93802L8.23488 3.18899L8.23835 3.18552L7.99088 2.93802ZM5.85184 8.10001L6.20194 8.10483L6.2018 8.09519L5.85184 8.10001ZM7.99088 13.2621L8.24183 13.0179L8.23486 13.0111L7.99088 13.2621ZM9.24686 4.19501H8.89686V5.04025L9.4944 4.44244L9.24686 4.19501ZM17.0579 4.19501L16.8103 4.44249L16.8152 4.44725L17.0579 4.19501ZM18.6759 8.10001L18.3257 8.09329L18.3259 8.10679L18.6759 8.10001ZM17.0579 12.006L16.8152 11.7537L16.8103 11.7586L17.0579 12.006ZM9.24686 12.006L9.49445 11.7585L9.48941 11.7537L9.24686 12.006ZM7.62784 8.10001L7.97803 8.10675L7.97777 8.09327L7.62784 8.10001ZM9.24686 4.19403H9.59686V3.3721L9.0043 3.9417L9.24686 4.19403ZM13.1471 15.75C15.1847 15.778 17.1442 14.9661 18.5648 13.505L18.0629 13.017C16.7764 14.3402 15.002 15.0755 13.1567 15.0501L13.1471 15.75ZM18.5579 13.512C20.0187 12.0916 20.8306 10.1326 20.8028 8.09523L20.1029 8.10478C20.1281 9.94979 19.3928 11.7238 18.0699 13.0101L18.5579 13.512ZM20.8028 8.10481C20.8308 6.06715 20.0189 4.10779 18.5579 2.6871L18.0699 3.18894C19.3929 4.47553 20.1282 6.24992 20.1029 8.0952L20.8028 8.10481ZM18.5613 2.69051C15.5739 -0.296455 10.7308 -0.296459 7.74341 2.69051L8.23835 3.18552C10.9524 0.471874 15.3523 0.47187 18.0664 3.18553L18.5613 2.69051ZM7.74689 2.68708C6.28576 4.10769 5.47381 6.06713 5.50187 8.10482L6.2018 8.09519C6.1764 6.24988 6.91169 4.47544 8.23486 3.18896L7.74689 2.68708ZM5.50187 8.09519C5.47381 10.133 6.28576 12.0924 7.74689 13.513L8.23486 13.0111C6.91169 11.7246 6.1764 9.95022 6.2018 8.10482L5.50187 8.09519ZM7.74002 13.5061C9.1607 14.9663 11.1195 15.7778 13.1567 15.75L13.1471 15.0501C11.3023 15.0752 9.52832 14.3404 8.24173 13.018L7.74002 13.5061ZM9.4944 4.44244C10.4644 3.47201 11.7803 2.92681 13.1524 2.92681V2.22681C11.5946 2.22681 10.1006 2.8458 8.99931 3.94757L9.4944 4.44244ZM13.1524 2.92681C14.5244 2.92681 15.8403 3.47201 16.8104 4.44245L17.3054 3.94757C16.2041 2.8458 14.7101 2.22681 13.1524 2.22681V2.92681ZM16.8152 4.44725C17.8047 5.39908 18.3523 6.72057 18.3259 8.09329L19.0258 8.10672C19.0559 6.53901 18.4306 5.02981 17.3005 3.94277L16.8152 4.44725ZM18.3259 8.10679C18.3526 9.47981 17.805 10.8017 16.8152 11.7538L17.3005 12.2582C18.4308 11.171 19.0562 9.6613 19.0258 8.09322L18.3259 8.10679ZM16.8103 11.7586C15.8403 12.729 14.5245 13.2742 13.1524 13.2742V13.9742C14.7102 13.9742 16.2041 13.3552 17.3054 12.2534L16.8103 11.7586ZM13.1524 13.2742C11.7803 13.2742 10.4644 12.729 9.4944 11.7586L8.99931 12.2534C10.1006 13.3552 11.5946 13.9742 13.1524 13.9742V13.2742ZM9.48941 11.7537C8.49926 10.8019 7.95133 9.47997 7.97777 8.10674L7.2779 8.09327C7.2477 9.66158 7.87348 11.1713 9.0043 12.2583L9.48941 11.7537ZM7.97777 8.09327C7.95133 6.72008 8.49926 5.39815 9.48941 4.44636L9.0043 3.9417C7.87348 5.02873 7.2477 6.53847 7.2779 8.10674L7.97777 8.09327ZM8.89686 4.19403V4.19501H9.59686V4.19403H8.89686Z" fill="white"/>
<path fill-rule="evenodd" clip-rule="evenodd" d="M25.9259 24.1071C25.8781 23.4648 25.796 22.8255 25.6798 22.192C25.5653 21.5404 25.4079 20.8971 25.2088 20.2661C25.0078 19.6403 24.7423 19.0371 24.4168 18.4661C24.0968 17.8922 23.6949 17.3681 23.2238 16.9101C22.7273 16.4435 22.1449 16.0777 21.5089 15.8331C20.811 15.5627 20.0682 15.427 19.3199 15.4331C18.8835 15.4789 18.4705 15.6529 18.1328 15.9331C17.7769 16.1651 17.3609 16.4331 16.8969 16.7331C16.3944 17.0315 15.857 17.2667 15.2968 17.4331C14.0269 17.8546 12.6548 17.8546 11.3849 17.4331C10.8246 17.2669 10.2871 17.0317 9.78488 16.7331C9.32486 16.4391 8.90884 16.1711 8.54788 15.9331C8.2106 15.653 7.79788 15.479 7.36185 15.4331C6.61343 15.4268 5.8707 15.5625 5.17288 15.8331C4.53683 16.0776 3.95438 16.4434 3.45786 16.9101C2.98691 17.3678 2.58499 17.8916 2.26486 18.4651C1.93948 19.0362 1.6741 19.6394 1.47287 20.265C1.27396 20.8958 1.11661 21.5388 1.00186 22.1901C0.885468 22.8239 0.803314 23.4634 0.75589 24.106C0.715851 24.6851 0.694855 25.2871 0.694855 25.8961C0.631561 27.3198 1.17484 28.7036 2.18985 29.7041C3.23886 30.6607 4.62344 31.1639 6.04184 31.1041H20.6408C22.0593 31.1638 23.4438 30.6606 24.4928 29.7041C25.5099 28.7046 26.0551 27.3206 25.9928 25.8961C25.9928 25.2851 25.9718 24.6831 25.9319 24.1061L25.9259 24.1071ZM23.2679 28.4181C22.549 29.0608 21.6035 29.3905 20.6408 29.3341H6.04684C5.08432 29.3908 4.13889 29.0615 3.41983 28.419C2.7601 27.7518 2.41696 26.8344 2.47684 25.898C2.47684 25.33 2.49588 24.7691 2.53287 24.231C2.57584 23.6525 2.64993 23.0767 2.75485 22.5061C2.8555 21.9309 2.9938 21.3631 3.16885 20.8061C3.33279 20.2986 3.54855 19.8093 3.81284 19.346C4.04813 18.9224 4.34354 18.535 4.68985 18.196C5.02072 17.8881 5.40823 17.6473 5.83084 17.4871C6.27811 17.3158 6.75198 17.2244 7.23087 17.2171C7.29288 17.2501 7.40384 17.317 7.58286 17.4301C7.94785 17.6681 8.36887 17.9391 8.83383 18.2371C9.46262 18.6198 10.1369 18.9222 10.8409 19.1371C12.4646 19.6723 14.2172 19.6723 15.8409 19.1371C16.5455 18.9222 17.2204 18.6199 17.8499 18.2371C18.3258 17.937 18.7348 17.6691 19.0999 17.4311C19.2788 17.3141 19.3899 17.2511 19.4519 17.218C19.9308 17.2254 20.4046 17.3168 20.8518 17.4881C21.2744 17.6485 21.6619 17.8893 21.9928 18.1971C22.3393 18.5359 22.6347 18.9233 22.8698 19.3471C23.1343 19.8102 23.3501 20.2995 23.5139 20.8071C23.689 21.364 23.8273 21.9319 23.9279 22.507C24.0325 23.0777 24.1067 23.6535 24.1499 24.2321C24.1878 24.7681 24.2069 25.3321 24.2069 25.898C24.2669 26.8345 23.9237 27.7519 23.2638 28.419L23.2679 28.4181Z" fill="white"/>
<path d="M25.9259 24.1071L25.5768 24.133L25.6053 24.516L25.984 24.4522L25.9259 24.1071ZM25.6798 22.192L25.3351 22.2527L25.3356 22.2552L25.6798 22.192ZM25.2088 20.2661L25.5426 20.1608L25.5421 20.159L25.2088 20.2661ZM24.4168 18.4661L24.1112 18.6366L24.1128 18.6394L24.4168 18.4661ZM23.2238 16.9101L23.4679 16.6591L23.4635 16.655L23.2238 16.9101ZM21.5089 15.8331L21.3824 16.1595L21.3833 16.1598L21.5089 15.8331ZM19.3199 15.4331L19.317 15.0831L19.3001 15.0832L19.2833 15.085L19.3199 15.4331ZM18.1328 15.9331L18.3239 16.2263L18.3408 16.2153L18.3563 16.2024L18.1328 15.9331ZM16.8969 16.7331L17.0757 17.0342L17.0869 17.027L16.8969 16.7331ZM15.2968 17.4331L15.1971 17.0974L15.1866 17.1009L15.2968 17.4331ZM11.3849 17.4331L11.4952 17.1007L11.4844 17.0975L11.3849 17.4331ZM9.78488 16.7331L9.5963 17.0282L9.606 17.0339L9.78488 16.7331ZM8.54788 15.9331L8.32428 16.2023L8.33911 16.2147L8.3552 16.2253L8.54788 15.9331ZM7.36185 15.4331L7.39849 15.085L7.38168 15.0832L7.36479 15.0831L7.36185 15.4331ZM5.17288 15.8331L5.29845 16.1598L5.29941 16.1594L5.17288 15.8331ZM3.45786 16.9101L3.21811 16.655L3.21391 16.6591L3.45786 16.9101ZM2.26486 18.4651L2.56898 18.6383L2.57046 18.6357L2.26486 18.4651ZM1.47287 20.265L1.13967 20.1579L1.13908 20.1598L1.47287 20.265ZM1.00186 22.1901L1.34611 22.2533L1.34655 22.2508L1.00186 22.1901ZM0.75589 24.106L0.406835 24.0803L0.406724 24.0819L0.75589 24.106ZM0.694855 25.8961L1.04451 25.9116L1.04485 25.9039V25.8961H0.694855ZM2.18985 29.7041L1.94398 29.9535L1.95402 29.9627L2.18985 29.7041ZM6.04184 31.1041V30.7541H6.03446L6.02709 30.7544L6.04184 31.1041ZM20.6408 31.1041L20.6556 30.7544L20.6482 30.7541H20.6408V31.1041ZM24.4928 29.7041L24.7288 29.9629L24.7381 29.9537L24.4928 29.7041ZM25.9928 25.8961H25.6428V25.9037L25.6432 25.9114L25.9928 25.8961ZM25.9319 24.1061L26.281 24.0819L26.2543 23.6969L25.8737 23.7609L25.9319 24.1061ZM23.2679 28.4181L23.5011 28.679L23.1854 28.0779L23.2679 28.4181ZM20.6408 29.3341L20.6613 28.9847L20.6511 28.9841H20.6408V29.3341ZM6.04684 29.3341V28.9841H6.03654L6.02626 28.9847L6.04684 29.3341ZM3.41983 28.419L3.17095 28.6651L3.17856 28.6728L3.18664 28.68L3.41983 28.419ZM2.47684 25.898L2.82612 25.9204L2.82684 25.9092V25.898H2.47684ZM2.53287 24.231L2.18382 24.2051L2.18369 24.207L2.53287 24.231ZM2.75485 22.5061L3.09909 22.5694L3.09961 22.5664L2.75485 22.5061ZM3.16885 20.8061L2.83579 20.6985L2.83495 20.7011L3.16885 20.8061ZM3.81284 19.346L4.11686 19.5195L4.11881 19.516L3.81284 19.346ZM4.68985 18.196L4.45132 17.9398L4.44502 17.9459L4.68985 18.196ZM5.83084 17.4871L5.95494 17.8143L5.95602 17.8139L5.83084 17.4871ZM7.23087 17.2171L7.39525 16.9081L7.31567 16.8657L7.22554 16.8671L7.23087 17.2171ZM7.58286 17.4301L7.77405 17.1368L7.76969 17.1341L7.58286 17.4301ZM8.83383 18.2371L8.64492 18.5318L8.65185 18.536L8.83383 18.2371ZM10.8409 19.1371L10.9505 18.8046L10.943 18.8023L10.8409 19.1371ZM15.8409 19.1371L15.7388 18.8022L15.7313 18.8047L15.8409 19.1371ZM17.8499 18.2371L18.0318 18.5361L18.0365 18.5331L17.8499 18.2371ZM19.0999 17.4311L19.291 17.7243L19.2914 17.724L19.0999 17.4311ZM19.4519 17.218L19.4573 16.8681L19.367 16.8667L19.2874 16.9091L19.4519 17.218ZM20.8518 17.4881L20.7267 17.8149L20.7276 17.8153L20.8518 17.4881ZM21.9928 18.1971L22.2376 17.9467L22.2312 17.9408L21.9928 18.1971ZM22.8698 19.3471L22.5638 19.5169L22.5659 19.5206L22.8698 19.3471ZM23.5139 20.8071L23.8478 20.7021L23.847 20.6996L23.5139 20.8071ZM23.9279 22.507L23.5831 22.5674L23.5836 22.5702L23.9279 22.507ZM24.2069 25.898H23.8569V25.9092L23.8576 25.9204L24.2069 25.898ZM23.2638 28.419L23.015 28.1729L22.1474 29.05L23.3463 28.7592L23.2638 28.419ZM26.2749 24.0811C26.2263 23.4264 26.1425 22.7747 26.0241 22.1289L25.3356 22.2552C25.4495 22.8764 25.53 23.5032 25.5768 24.133L26.2749 24.0811ZM26.0246 22.1314C25.9073 21.4647 25.7463 20.8064 25.5426 20.1608L24.8751 20.3714C25.0695 20.9877 25.2232 21.6162 25.3351 22.2527L26.0246 22.1314ZM25.5421 20.159C25.3336 19.5102 25.0584 18.8848 24.7209 18.2927L24.1128 18.6394C24.4263 19.1894 24.682 19.7704 24.8756 20.3731L25.5421 20.159ZM24.7225 18.2956C24.3859 17.6921 23.9633 17.1408 23.4678 16.6591L22.9799 17.161C23.4266 17.5953 23.8076 18.0924 24.1112 18.6366L24.7225 18.2956ZM23.4635 16.655C22.934 16.1574 22.3128 15.7673 21.6345 15.5064L21.3833 16.1598C21.9769 16.3881 22.5207 16.7295 22.9842 17.1651L23.4635 16.655ZM21.6353 15.5067C20.8962 15.2204 20.1096 15.0766 19.317 15.0831L19.3227 15.7831C20.0269 15.7773 20.7258 15.905 21.3824 16.1595L21.6353 15.5067ZM19.2833 15.085C18.7782 15.138 18.3002 15.3394 17.9093 15.6637L18.3563 16.2024C18.6408 15.9664 18.9888 15.8198 19.3564 15.7812L19.2833 15.085ZM17.9417 15.6399C17.5865 15.8714 17.1716 16.1387 16.7068 16.4392L17.0869 17.027C17.5502 16.7275 17.9673 16.4588 18.3239 16.2263L17.9417 15.6399ZM16.7181 16.4322C16.2405 16.7159 15.7297 16.9394 15.1972 17.0976L15.3965 17.7686C15.9844 17.5939 16.5484 17.3472 17.0756 17.034L16.7181 16.4322ZM15.1866 17.1009C13.9882 17.4986 12.6935 17.4986 11.4951 17.1009L11.2746 17.7653C12.6161 18.2105 14.0656 18.2105 15.4071 17.7653L15.1866 17.1009ZM11.4844 17.0975C10.9519 16.9396 10.4411 16.7161 9.96376 16.4323L9.606 17.0339C10.1332 17.3474 10.6973 17.5942 11.2853 17.7686L11.4844 17.0975ZM9.97336 16.4382C9.51374 16.1444 9.0994 15.8775 8.74057 15.6409L8.3552 16.2253C8.71828 16.4647 9.13598 16.7337 9.5964 17.028L9.97336 16.4382ZM8.77149 15.6638C8.38104 15.3396 7.90327 15.1381 7.39849 15.085L7.32521 15.7812C7.69249 15.8198 8.04016 15.9664 8.32428 16.2023L8.77149 15.6638ZM7.36479 15.0831C6.5721 15.0764 5.78544 15.2202 5.04635 15.5068L5.29941 16.1594C5.95596 15.9049 6.65476 15.7771 7.35891 15.7831L7.36479 15.0831ZM5.04731 15.5064C4.36892 15.7672 3.7477 16.1573 3.21814 16.655L3.69757 17.1651C4.16105 16.7294 4.70475 16.388 5.29845 16.1598L5.04731 15.5064ZM3.21391 16.6591C2.71864 17.1405 2.29595 17.6914 1.95926 18.2944L2.57046 18.6357C2.87404 18.0919 3.25518 17.5952 3.7018 17.161L3.21391 16.6591ZM1.96076 18.2918C1.62342 18.8839 1.3483 19.5092 1.13968 20.1579L1.80606 20.3722C1.99991 19.7695 2.25554 19.1884 2.56897 18.6383L1.96076 18.2918ZM1.13908 20.1598C0.935563 20.8051 0.774573 21.463 0.65717 22.1294L1.34655 22.2508C1.45864 21.6146 1.61235 20.9864 1.80666 20.3703L1.13908 20.1598ZM0.657619 22.1269C0.538953 22.773 0.455192 23.4251 0.406839 24.0803L1.10494 24.1318C1.15144 23.5018 1.23198 22.8747 1.3461 22.2533L0.657619 22.1269ZM0.406724 24.0819C0.366121 24.6691 0.344855 25.2791 0.344855 25.8961H1.04485C1.04485 25.295 1.06558 24.7011 1.10506 24.1302L0.406724 24.0819ZM0.3452 25.8805C0.277505 27.4033 0.85856 28.8833 1.94416 29.9533L2.43554 29.4548C1.49111 28.5239 0.985618 27.2363 1.04451 25.9116L0.3452 25.8805ZM1.95402 29.9627C3.07126 30.9815 4.54592 31.5175 6.05659 31.4538L6.02709 30.7544C4.70097 30.8103 3.40646 30.3398 2.42568 29.4455L1.95402 29.9627ZM6.04184 31.4541H20.6408V30.7541H6.04184V31.4541ZM20.6261 31.4538C22.1368 31.5174 23.6114 30.9815 24.7287 29.9627L24.257 29.4454C23.2762 30.3398 21.9818 30.8102 20.6556 30.7544L20.6261 31.4538ZM24.7381 29.9537C25.826 28.8847 26.4091 27.4044 26.3425 25.8808L25.6432 25.9114C25.7011 27.2368 25.1938 28.5245 24.2475 29.4544L24.7381 29.9537ZM26.3428 25.8961C26.3428 25.2771 26.3216 24.6671 26.281 24.0819L25.5827 24.1303C25.6221 24.6991 25.6428 25.293 25.6428 25.8961H26.3428ZM25.8737 23.7609L25.8678 23.7619L25.984 24.4522L25.99 24.4512L25.8737 23.7609ZM23.0346 28.1571C22.3851 28.7378 21.531 29.0357 20.6613 28.9847L20.6203 29.6835C21.6761 29.7454 22.7128 29.3838 23.5011 28.679L23.0346 28.1571ZM20.6408 28.9841H6.04684V29.6841H20.6408V28.9841ZM6.02626 28.9847C5.15672 29.0359 4.30262 28.7384 3.65303 28.158L3.18664 28.68C3.97515 29.3846 5.01192 29.7456 6.06743 29.6835L6.02626 28.9847ZM3.66871 28.173C3.07923 27.5768 2.77262 26.7571 2.82612 25.9204L2.12755 25.8757C2.0613 26.9118 2.44097 27.9268 3.17095 28.6651L3.66871 28.173ZM2.82684 25.898C2.82684 25.3378 2.84563 24.7848 2.88204 24.2551L2.18369 24.207C2.14613 24.7534 2.12684 25.3223 2.12684 25.898H2.82684ZM2.88191 24.257C2.92394 23.691 2.99644 23.1276 3.09908 22.5694L2.41062 22.4428C2.30343 23.0258 2.22773 23.614 2.18383 24.2051L2.88191 24.257ZM3.09961 22.5664C3.19762 22.0064 3.33229 21.4534 3.50275 20.911L2.83495 20.7011C2.65532 21.2727 2.51338 21.8555 2.41009 22.4457L3.09961 22.5664ZM3.50191 20.9136C3.65846 20.429 3.86449 19.9618 4.11684 19.5195L3.50883 19.1726C3.23261 19.6568 3.00713 20.1681 2.8358 20.6985L3.50191 20.9136ZM4.11881 19.516C4.3377 19.1219 4.61251 18.7615 4.93468 18.4462L4.44502 17.9459C4.07456 18.3086 3.75856 18.7229 3.50686 19.1761L4.11881 19.516ZM4.9283 18.4522C5.22601 18.1752 5.57469 17.9585 5.95494 17.8143L5.70675 17.1598C5.24178 17.3361 4.81543 17.601 4.45139 17.9398L4.9283 18.4522ZM5.95602 17.8139C6.36501 17.6573 6.79832 17.5737 7.2362 17.567L7.22554 16.8671C6.70565 16.875 6.19121 16.9743 5.70566 17.1602L5.95602 17.8139ZM7.06648 17.5261C7.11525 17.552 7.21555 17.6121 7.39602 17.726L7.76969 17.1341C7.59212 17.022 7.4705 16.9481 7.39525 16.9081L7.06648 17.5261ZM7.39168 17.7232C7.75785 17.962 8.17979 18.2336 8.64497 18.5317L9.02269 17.9424C8.55794 17.6445 8.13784 17.3741 7.77403 17.1369L7.39168 17.7232ZM8.65185 18.536C9.30562 18.934 10.0067 19.2484 10.7387 19.4718L10.943 18.8023C10.2671 18.596 9.61961 18.3056 9.01582 17.9381L8.65185 18.536ZM10.7313 19.4695C12.4262 20.0282 14.2556 20.0282 15.9504 19.4695L15.7313 18.8047C14.1788 19.3165 12.503 19.3165 10.9504 18.8047L10.7313 19.4695ZM15.9429 19.4718C16.6756 19.2485 17.3773 18.9341 18.0317 18.5361L17.668 17.938C17.0636 18.3056 16.4154 18.596 15.7388 18.8023L15.9429 19.4718ZM18.0365 18.5331C18.5152 18.2314 18.9267 17.9618 19.291 17.7243L18.9087 17.1379C18.543 17.3764 18.1364 17.6427 17.6632 17.941L18.0365 18.5331ZM19.2914 17.724C19.463 17.6118 19.5649 17.5544 19.6164 17.527L19.2874 16.9091C19.2148 16.9478 19.0947 17.0163 18.9084 17.1381L19.2914 17.724ZM19.4465 17.568C19.8844 17.5748 20.3177 17.6583 20.7267 17.8149L20.977 17.1612C20.4915 16.9753 19.9771 16.8761 19.4573 16.8681L19.4465 17.568ZM20.7276 17.8153C21.1079 17.9597 21.4567 18.1764 21.7545 18.4533L22.2312 17.9408C21.8671 17.6022 21.4409 17.3374 20.9761 17.1609L20.7276 17.8153ZM21.7481 18.4473C22.0704 18.7624 22.3451 19.1227 22.5638 19.5169L23.1759 19.1773C22.9243 18.7239 22.6083 18.3094 22.2375 17.9468L21.7481 18.4473ZM22.5659 19.5206C22.8184 19.9628 23.0244 20.4299 23.1808 20.9146L23.847 20.6996C23.6758 20.1691 23.4502 19.6576 23.1738 19.1735L22.5659 19.5206ZM23.18 20.9121C23.3505 21.4544 23.4852 22.0074 23.5831 22.5673L24.2727 22.4467C24.1694 21.8565 24.0275 21.2737 23.8478 20.7021L23.18 20.9121ZM23.5836 22.5702C23.686 23.1286 23.7586 23.6921 23.8008 24.2582L24.4989 24.206C24.4548 23.615 24.379 23.0268 24.2722 22.4439L23.5836 22.5702ZM23.8007 24.2568C23.8381 24.784 23.8569 25.3397 23.8569 25.898H24.5569C24.5569 25.3244 24.5376 24.7522 24.499 24.2074L23.8007 24.2568ZM23.8576 25.9204C23.9112 26.7572 23.6046 27.5769 23.015 28.1729L23.5127 28.6652C24.2429 27.927 24.6226 26.9118 24.5562 25.8757L23.8576 25.9204ZM23.3463 28.7592L23.3503 28.7582L23.1854 28.0779L23.1813 28.0789L23.3463 28.7592Z" fill="white"/>
</g>
</svg>
