<svg width="123" height="32" viewBox="0 0 123 32" fill="none" xmlns="http://www.w3.org/2000/svg">
<path d="M31.9629 20.31C32.1742 19.4034 31.4535 18.5842 30.5291 18.5842H22.6612C21.2462 18.5842 20.0992 19.7398 20.0992 21.1653V30.5203C20.0992 31.5323 21.0499 32.273 21.985 31.9035C26.944 29.9438 30.7252 25.6207 31.9629 20.31Z" fill="#14B890"/>
<path d="M10.015 31.9035C10.9501 32.273 11.9008 31.5323 11.9008 30.5203V21.1653C11.9008 19.7398 10.7538 18.5842 9.33884 18.5842H1.47094C0.546504 18.5842 -0.174246 19.4034 0.0370707 20.31C1.2748 25.6207 5.05602 29.9438 10.015 31.9035Z" fill="#14B890"/>
<path d="M28.9243 10.3245C30.0145 10.3245 30.7501 9.21247 30.2043 8.26164C27.3695 3.32291 22.0699 0 16 0C9.93007 0 4.63051 3.32291 1.79573 8.26164C1.24996 9.21247 1.98555 10.3245 3.07576 10.3245L28.9243 10.3245Z" fill="#14B890"/>
<path d="M47.6742 24.2443C48.9645 24.2443 49.7098 23.4768 49.7098 22.1197V11.2408H52.5352C53.6142 11.2408 54.3484 10.6401 54.3484 9.59447C54.3484 8.54884 53.6365 7.94817 52.5352 7.94817H42.8243C41.7119 7.94817 41 8.54884 41 9.59447C41 10.6401 41.7342 11.2408 42.8243 11.2408H45.6386V22.1197C45.6386 23.4768 46.3839 24.2443 47.6742 24.2443Z" fill="#2C3030"/>
<path d="M57.6138 24.1776C59.071 24.1776 60.5505 23.499 61.2068 22.2754H61.2846V22.5535C61.3959 23.7104 62.1411 24.2554 63.1868 24.2554C64.3103 24.2554 65.1223 23.6214 65.1223 22.2754V15.6902C65.1223 13.2542 62.9754 11.5967 59.7384 11.5967C56.9575 11.5967 54.933 12.5089 54.4213 14.0106C54.3323 14.2442 54.299 14.4444 54.299 14.7225C54.299 15.5679 54.9664 16.1574 55.9119 16.1574C56.5126 16.1574 57.0131 15.935 57.4692 15.4789C58.2256 14.6557 58.6928 14.411 59.5382 14.411C60.5727 14.411 61.2624 14.9449 61.2624 15.9127V16.6024L58.4258 16.7692C55.289 16.9583 53.5426 18.2264 53.5426 20.4957C53.5426 22.687 55.3557 24.1776 57.6138 24.1776ZM59.0154 21.4634C58.0699 21.4634 57.4358 20.9962 57.4358 20.2287C57.4358 19.5168 58.0254 19.0385 59.0599 18.9606L61.2624 18.816V19.6503C61.2624 20.7292 60.2167 21.4634 59.0154 21.4634Z" fill="#2C3030"/>
<path d="M73.7115 10.0617C75.6137 10.0617 77.1265 9.10503 77.5937 7.71457C77.6716 7.50322 77.7049 7.29187 77.7049 7.10277C77.7049 6.44647 77.2822 5.95703 76.6148 5.95703C76.1142 5.95703 75.8028 6.21288 75.6026 6.71344C75.2688 7.54771 74.746 8.18176 73.7115 8.18176C72.677 8.18176 72.1653 7.54771 71.8205 6.71344C71.6203 6.21288 71.3088 5.95703 70.8083 5.95703C70.1408 5.95703 69.707 6.44647 69.707 7.10277C69.707 7.29187 69.7515 7.50322 69.8294 7.72569C70.3077 9.11615 71.8094 10.0617 73.7115 10.0617ZM69.8739 24.2554C70.964 24.2554 71.6092 23.8995 72.1208 23.0096L75.7472 17.0251H75.8361V22.2754C75.8361 23.5992 76.6259 24.2554 77.7494 24.2554C78.8729 24.2554 79.6738 23.5992 79.6738 22.2643V13.7547C79.6738 12.4532 78.8173 11.6301 77.4824 11.6301C76.4146 11.6301 75.7694 11.9861 75.2355 12.8759L71.6314 18.727H71.5424V13.6212C71.5424 12.2864 70.7526 11.6301 69.618 11.6301C68.4945 11.6301 67.6936 12.2864 67.6936 13.6101V22.1308C67.6936 23.4323 68.4389 24.2554 69.8739 24.2554Z" fill="#2C3030"/>
<path d="M84.0687 24.2554C85.3034 24.2554 86.0376 23.5213 86.0376 22.2421V14.8003H89.9198V22.2421C89.9198 23.5213 90.6539 24.2554 91.8886 24.2554C93.1234 24.2554 93.8575 23.5213 93.8575 22.2421V14.0217C93.8575 12.6646 93.1123 11.8859 91.8219 11.8859H84.1355C82.8451 11.8859 82.0998 12.6646 82.0998 14.0217V22.2421C82.0998 23.5213 82.834 24.2554 84.0687 24.2554Z" fill="#2C3030"/>
<path d="M98.5348 28.349C99.6806 28.349 100.504 27.6815 100.504 26.3022V21.9306H100.582C101.171 23.3322 102.506 24.1776 104.286 24.1776C107.3 24.1776 109.069 21.8972 109.069 17.9483C109.069 13.9883 107.289 11.708 104.23 11.708C102.484 11.708 101.171 12.5867 100.559 14.0439H100.481V13.6657C100.481 12.2864 99.6695 11.6301 98.5237 11.6301C97.3669 11.6301 96.5548 12.2864 96.5548 13.6546V26.3022C96.5548 27.6815 97.378 28.349 98.5348 28.349ZM102.762 21.0963C101.371 21.0963 100.493 19.8727 100.481 17.9483C100.493 16.0351 101.382 14.7892 102.762 14.7892C104.152 14.7892 105.042 16.0239 105.042 17.9483C105.042 19.8727 104.163 21.0963 102.762 21.0963Z" fill="#2C3030"/>
<path d="M116.746 24.2888C120.562 24.2888 122.942 21.9862 122.942 17.9372C122.942 13.9661 120.528 11.5967 116.746 11.5967C112.986 11.5967 110.55 13.9772 110.55 17.9372C110.55 21.9751 112.931 24.2888 116.746 24.2888ZM116.746 21.3967C115.389 21.3967 114.555 20.1619 114.555 17.9483C114.555 15.7681 115.411 14.4889 116.746 14.4889C118.092 14.4889 118.949 15.7681 118.949 17.9483C118.949 20.1619 118.092 21.3967 116.746 21.3967Z" fill="#2C3030"/>
</svg>
