<svg display="none" xmlns="http://www.w3.org/2000/svg">
    <symbol id="dns" viewBox="0 0 20 20">
      <g>
        <path
          d="M16.6667 10.8333H3.33333C2.875 10.8333 2.5 11.2083 2.5 11.6667V16.6667C2.5 17.125 2.875 17.5 3.33333 17.5H16.6667C17.125 17.5 17.5 17.125 17.5 16.6667V11.6667C17.5 11.2083 17.125 10.8333 16.6667 10.8333ZM5.83333 15.8333C4.91667 15.8333 4.16667 15.0833 4.16667 14.1667C4.16667 13.25 4.91667 12.5 5.83333 12.5C6.75 12.5 7.5 13.25 7.5 14.1667C7.5 15.0833 6.75 15.8333 5.83333 15.8333ZM16.6667 2.5H3.33333C2.875 2.5 2.5 2.875 2.5 3.33333V8.33333C2.5 8.79167 2.875 9.16667 3.33333 9.16667H16.6667C17.125 9.16667 17.5 8.79167 17.5 8.33333V3.33333C17.5 2.875 17.125 2.5 16.6667 2.5ZM5.83333 7.5C4.91667 7.5 4.16667 6.75 4.16667 5.83333C4.16667 4.91667 4.91667 4.16667 5.83333 4.16667C6.75 4.16667 7.5 4.91667 7.5 5.83333C7.5 6.75 6.75 7.5 5.83333 7.5Z"
        />
      </g>
    </symbol>
    <symbol id="check-box" viewBox="0 0 20 20">
      <g>
        <path
          d="M15.8333 2.5H4.16667C3.24167 2.5 2.5 3.25 2.5 4.16667V15.8333C2.5 16.75 3.24167 17.5 4.16667 17.5H15.8333C16.7583 17.5 17.5 16.75 17.5 15.8333V4.16667C17.5 3.25 16.7583 2.5 15.8333 2.5ZM8.33333 14.1667L4.16667 10L5.34167 8.825L8.33333 11.8083L14.6583 5.48333L15.8333 6.66667L8.33333 14.1667Z"
        />
      </g>
    </symbol>
    <symbol id="people-alt" viewBox="0 0 20 20">
      <g>
        <path d="M13.8916 10.9414C15.0333 11.7164 15.8333 12.7664 15.8333 14.1664V16.6664H19.1666V14.1664C19.1666 12.3497 16.1916 11.2747 13.8916 10.9414Z"/>
        <path d="M7.49984 9.99967C9.34079 9.99967 10.8332 8.50729 10.8332 6.66634C10.8332 4.82539 9.34079 3.33301 7.49984 3.33301C5.65889 3.33301 4.1665 4.82539 4.1665 6.66634C4.1665 8.50729 5.65889 9.99967 7.49984 9.99967Z"/>
        <path d="M12.4999 9.99967C14.3416 9.99967 15.8333 8.50801 15.8333 6.66634C15.8333 4.82467 14.3416 3.33301 12.4999 3.33301C12.1083 3.33301 11.7416 3.41634 11.3916 3.53301C12.0833 4.39134 12.4999 5.48301 12.4999 6.66634C12.4999 7.84967 12.0833 8.94134 11.3916 9.79967C11.7416 9.91634 12.1083 9.99967 12.4999 9.99967Z"/>
        <path d="M7.49992 10.833C5.27492 10.833 0.833252 11.9497 0.833252 14.1663V16.6663H14.1666V14.1663C14.1666 11.9497 9.72492 10.833 7.49992 10.833Z"/>
      </g>
    </symbol>
    <symbol id="business" viewBox="0 0 20 20">
      <g>
        <path d="M8.33342 13.3333V12.5H2.50841L2.50008 15.8333C2.50008 16.7583 3.24175 17.5 4.16675 17.5H15.8334C16.7584 17.5 17.5001 16.7583 17.5001 15.8333V12.5H11.6667V13.3333H8.33342ZM16.6667 5.83333H13.3251V4.16667L11.6584 2.5H8.32508L6.65841 4.16667V5.83333H3.33341C2.41675 5.83333 1.66675 6.58333 1.66675 7.5V10C1.66675 10.925 2.40841 11.6667 3.33341 11.6667H8.33342V10H11.6667V11.6667H16.6667C17.5834 11.6667 18.3334 10.9167 18.3334 10V7.5C18.3334 6.58333 17.5834 5.83333 16.6667 5.83333ZM11.6667 5.83333H8.33342V4.16667H11.6667V5.83333Z"/>
      </g>
    </symbol>
    <symbol id="donut-small" viewBox="0 0 20 20">
      <g>
        <path d="M9.16675 7.63366V1.66699C5.00008 2.08366 1.66675 5.65866 1.66675 10.0003C1.66675 14.342 5.00008 17.917 9.16675 18.3337V12.367C8.33342 12.0253 7.50008 11.1003 7.50008 10.0003C7.50008 8.90033 8.33342 7.97533 9.16675 7.63366ZM12.3834 9.16699H18.3334C17.9334 5.20866 15.0001 2.05866 10.8334 1.66699V7.63366C11.6667 7.88366 12.1001 8.45033 12.3834 9.16699ZM10.8334 12.367V18.3337C15.0001 17.942 17.9334 14.792 18.3334 10.8337H12.3834C12.1001 11.5503 11.6667 12.117 10.8334 12.367Z"/>
      </g>
    </symbol>
    <symbol id="help-outline" viewBox="0 0 16 16">
      <g>
        <path d="M7.33325 11.9997H8.66659V10.6663H7.33325V11.9997ZM7.99992 1.33301C4.31992 1.33301 1.33325 4.31967 1.33325 7.99967C1.33325 11.6797 4.31992 14.6663 7.99992 14.6663C11.6799 14.6663 14.6666 11.6797 14.6666 7.99967C14.6666 4.31967 11.6799 1.33301 7.99992 1.33301ZM7.99992 13.333C5.05992 13.333 2.66659 10.9397 2.66659 7.99967C2.66659 5.05967 5.05992 2.66634 7.99992 2.66634C10.9399 2.66634 13.3333 5.05967 13.3333 7.99967C13.3333 10.9397 10.9399 13.333 7.99992 13.333ZM7.99992 3.99967C6.52659 3.99967 5.33325 5.19301 5.33325 6.66634H6.66659C6.66659 5.93301 7.26659 5.33301 7.99992 5.33301C8.73325 5.33301 9.33325 5.93301 9.33325 6.66634C9.33325 7.99967 7.33325 7.83301 7.33325 9.99967H8.66659C8.66659 8.49967 10.6666 8.33301 10.6666 6.66634C10.6666 5.19301 9.47325 3.99967 7.99992 3.99967Z"/>
      </g>
    </symbol>
  </svg>