<svg width="788" height="338" viewBox="0 0 788 338" fill="none" xmlns="http://www.w3.org/2000/svg">
<path fill-rule="evenodd" clip-rule="evenodd" d="M787 338H1.52588e-05V174C-0.00405884 162.242 1.17891 150.494 3.53098 138.953C8.08768 116.689 16.9854 95.5405 29.716 76.7153C48.6017 48.7412 75.1937 26.8433 106.271 13.6743C116.797 9.2251 127.738 5.82886 138.933 3.53516C150.474 1.18188 162.222 -0.00244141 174 0.000244141H787V338V338Z" fill="#AFAAC1"/>
<path fill-rule="evenodd" clip-rule="evenodd" d="M788 338H16V174C15.9947 163.211 17.0812 152.407 19.2429 141.795C23.4321 121.314 31.6156 101.86 43.326 84.5432C60.6927 58.8186 85.147 38.6824 113.726 26.5742C123.405 22.4832 133.465 19.3601 143.759 17.2512C154.37 15.0876 165.171 13.9983 176 14.0002H788V338V338Z" fill="black"/>
<path fill-rule="evenodd" clip-rule="evenodd" d="M787 338H77V168C76.9697 148.873 82.6825 130.175 93.3987 114.328C103.817 98.8936 118.487 86.811 135.632 79.5442C147.454 74.541 160.163 71.9753 173 72.0002H787V338V338Z" fill="#1E1E1E"/>
<path fill-rule="evenodd" clip-rule="evenodd" d="M767.8 133H334C306.386 133 284 110.614 284 83.0002C284 55.386 306.386 33.0002 334 33.0002H767.8C774.39 32.9885 780.917 34.2874 787 36.8213V129.179C780.917 131.713 774.39 133.012 767.8 133H767.8Z" fill="black"/>
<path fill-rule="evenodd" clip-rule="evenodd" d="M496 86.0002C496 83.515 496.879 81.3936 498.636 79.6363C500.393 77.8789 502.515 77.0002 505 77.0002H602C604.485 77.0002 606.607 77.8789 608.364 79.6363C610.121 81.3936 611 83.515 611 86.0002C611 88.4855 610.121 90.6068 608.364 92.3642C606.607 94.1216 604.485 95.0002 602 95.0002H505C502.515 95.0002 500.393 94.1216 498.636 92.3642C496.879 90.6068 496 88.4855 496 86.0002V86.0002Z" fill="#2B2B29"/>
<circle cx="657" cy="86.0002" r="17" fill="#171717"/>
<circle cx="657" cy="86.0002" r="16" stroke="#2B2B29" stroke-width="2"/>
<circle cx="657" cy="86.0002" r="6" fill="#232A5E"/>
<path fill-rule="evenodd" clip-rule="evenodd" d="M781 303H125C116.163 303 109 295.837 109 287V245C109 236.164 116.163 229 125 229H781C783.426 228.993 785.82 229.543 788 230.608V301.391C785.821 302.456 783.426 303.007 781 303Z" fill="#323234"/>
<path d="M430.169 272.154L435.928 255.509H438.133L430.306 276.974C430.146 277.395 429.941 277.862 429.69 278.375C429.451 278.888 429.132 279.378 428.733 279.845C428.346 280.323 427.856 280.711 427.264 281.007C426.683 281.314 425.971 281.468 425.127 281.468C424.911 281.468 424.632 281.44 424.29 281.383C423.96 281.337 423.72 281.292 423.572 281.246L423.555 279.52C423.681 279.554 423.863 279.583 424.102 279.605C424.341 279.628 424.507 279.64 424.598 279.64C425.338 279.64 425.959 279.514 426.46 279.264C426.973 279.013 427.4 278.637 427.742 278.136C428.084 277.646 428.386 277.031 428.648 276.29L430.169 272.154ZM424.786 255.509L430.682 271.385L431.229 273.521L429.742 274.359L422.564 255.509H424.786ZM439.927 265.045V264.481C439.927 263.137 440.121 261.895 440.508 260.755C440.896 259.616 441.448 258.631 442.166 257.799C442.895 256.967 443.767 256.323 444.781 255.868C445.795 255.401 446.923 255.167 448.165 255.167C449.418 255.167 450.551 255.401 451.565 255.868C452.579 256.323 453.451 256.967 454.18 257.799C454.909 258.631 455.468 259.616 455.855 260.755C456.242 261.895 456.436 263.137 456.436 264.481V265.045C456.436 266.389 456.242 267.631 455.855 268.771C455.468 269.898 454.909 270.878 454.18 271.71C453.462 272.542 452.597 273.191 451.583 273.658C450.569 274.114 449.441 274.342 448.199 274.342C446.945 274.342 445.812 274.114 444.798 273.658C443.784 273.191 442.912 272.542 442.183 271.71C441.454 270.878 440.896 269.898 440.508 268.771C440.121 267.631 439.927 266.389 439.927 265.045ZM441.961 264.481V265.045C441.961 266.059 442.098 267.022 442.371 267.933C442.645 268.833 443.043 269.636 443.567 270.343C444.091 271.038 444.741 271.585 445.516 271.983C446.29 272.382 447.185 272.582 448.199 272.582C449.201 272.582 450.084 272.382 450.848 271.983C451.622 271.585 452.272 271.038 452.796 270.343C453.32 269.636 453.713 268.833 453.975 267.933C454.249 267.022 454.385 266.059 454.385 265.045V264.481C454.385 263.478 454.249 262.527 453.975 261.627C453.713 260.727 453.314 259.924 452.779 259.217C452.255 258.511 451.605 257.953 450.831 257.542C450.056 257.132 449.167 256.927 448.165 256.927C447.162 256.927 446.273 257.132 445.499 257.542C444.735 257.953 444.086 258.511 443.55 259.217C443.026 259.924 442.627 260.727 442.354 261.627C442.092 262.527 441.961 263.478 441.961 264.481ZM472.518 269.728V255.509H474.568V274H472.603L472.518 269.728ZM472.894 266.31L473.953 266.275C473.953 267.438 473.816 268.508 473.543 269.488C473.27 270.468 472.842 271.323 472.261 272.052C471.68 272.781 470.928 273.345 470.005 273.744C469.083 274.142 467.972 274.342 466.673 274.342C465.773 274.342 464.947 274.216 464.195 273.966C463.454 273.704 462.816 273.294 462.281 272.735C461.745 272.177 461.329 271.454 461.033 270.565C460.748 269.676 460.606 268.6 460.606 267.335V255.509H462.64V267.369C462.64 268.36 462.748 269.186 462.964 269.847C463.192 270.508 463.5 271.038 463.887 271.437C464.286 271.835 464.742 272.12 465.254 272.291C465.767 272.462 466.32 272.547 466.912 272.547C468.416 272.547 469.601 272.257 470.467 271.676C471.344 271.095 471.965 270.331 472.33 269.386C472.706 268.429 472.894 267.403 472.894 266.31ZM481.951 258.568V274H479.917V255.509H481.9L481.951 258.568ZM488.497 255.372L488.445 257.252C488.217 257.218 487.995 257.189 487.779 257.167C487.562 257.144 487.329 257.132 487.078 257.132C486.189 257.132 485.409 257.298 484.737 257.628C484.076 257.947 483.518 258.397 483.062 258.978C482.606 259.548 482.259 260.22 482.02 260.995C481.78 261.758 481.644 262.578 481.609 263.456L480.857 263.746C480.857 262.538 480.983 261.416 481.233 260.379C481.484 259.343 481.866 258.437 482.378 257.662C482.903 256.876 483.558 256.266 484.344 255.833C485.141 255.389 486.076 255.167 487.146 255.167C487.409 255.167 487.665 255.19 487.916 255.235C488.178 255.27 488.371 255.315 488.497 255.372ZM493.743 259.457V274H491.709V255.509H493.658L493.743 259.457ZM493.282 263.609L492.376 263.097C492.444 262.003 492.667 260.978 493.042 260.021C493.418 259.063 493.925 258.22 494.563 257.491C495.213 256.762 495.971 256.192 496.836 255.782C497.714 255.372 498.682 255.167 499.742 255.167C500.665 255.167 501.491 255.292 502.22 255.543C502.949 255.794 503.57 256.192 504.083 256.739C504.595 257.286 504.983 257.987 505.245 258.841C505.518 259.696 505.655 260.738 505.655 261.969V274H503.604V261.952C503.604 260.676 503.427 259.679 503.074 258.961C502.721 258.232 502.22 257.713 501.57 257.406C500.921 257.098 500.152 256.944 499.263 256.944C498.283 256.944 497.423 257.161 496.683 257.594C495.953 258.015 495.338 258.568 494.837 259.251C494.347 259.924 493.971 260.647 493.709 261.422C493.447 262.185 493.305 262.914 493.282 263.609ZM522.198 270.685V261.148C522.198 260.271 522.015 259.514 521.651 258.875C521.286 258.237 520.751 257.748 520.044 257.406C519.338 257.064 518.466 256.893 517.43 256.893C516.473 256.893 515.618 257.064 514.866 257.406C514.126 257.736 513.539 258.186 513.106 258.756C512.684 259.314 512.474 259.935 512.474 260.619L510.423 260.602C510.423 259.907 510.594 259.234 510.936 258.585C511.277 257.936 511.762 257.354 512.388 256.842C513.015 256.329 513.761 255.925 514.627 255.628C515.504 255.321 516.467 255.167 517.515 255.167C518.837 255.167 519.999 255.389 521.001 255.833C522.015 256.278 522.807 256.944 523.377 257.833C523.947 258.722 524.231 259.838 524.231 261.183V270.121C524.231 270.759 524.277 271.419 524.368 272.103C524.471 272.787 524.613 273.351 524.795 273.795V274H522.625C522.488 273.59 522.38 273.077 522.3 272.462C522.232 271.835 522.198 271.243 522.198 270.685ZM522.676 263.233L522.71 264.806H518.694C517.646 264.806 516.706 264.903 515.875 265.096C515.054 265.278 514.359 265.552 513.79 265.917C513.22 266.27 512.781 266.697 512.474 267.198C512.177 267.7 512.029 268.269 512.029 268.907C512.029 269.568 512.194 270.172 512.525 270.719C512.867 271.266 513.345 271.704 513.96 272.035C514.587 272.354 515.328 272.513 516.182 272.513C517.321 272.513 518.324 272.302 519.19 271.881C520.067 271.459 520.791 270.907 521.36 270.223C521.93 269.54 522.312 268.793 522.505 267.984L523.394 269.164C523.246 269.733 522.972 270.32 522.574 270.924C522.186 271.516 521.679 272.075 521.053 272.599C520.426 273.111 519.686 273.533 518.831 273.863C517.988 274.182 517.031 274.342 515.96 274.342C514.752 274.342 513.698 274.114 512.798 273.658C511.91 273.202 511.215 272.582 510.713 271.795C510.223 270.998 509.979 270.098 509.979 269.095C509.979 268.184 510.172 267.369 510.56 266.651C510.947 265.922 511.505 265.307 512.234 264.806C512.975 264.293 513.864 263.906 514.9 263.644C515.949 263.37 517.122 263.233 518.421 263.233H522.676ZM531.648 259.337V274H529.598V255.509H531.563L531.648 259.337ZM531.272 263.609L530.281 263.097C530.35 262.003 530.555 260.978 530.896 260.021C531.25 259.063 531.74 258.22 532.366 257.491C532.993 256.762 533.745 256.192 534.622 255.782C535.499 255.372 536.496 255.167 537.613 255.167C538.513 255.167 539.327 255.292 540.057 255.543C540.797 255.782 541.424 256.164 541.937 256.688C542.461 257.201 542.865 257.873 543.15 258.705C543.435 259.536 543.577 260.533 543.577 261.695V274H541.543V261.764C541.543 260.533 541.35 259.57 540.962 258.875C540.586 258.181 540.057 257.685 539.373 257.389C538.701 257.092 537.92 256.944 537.032 256.944C535.984 256.944 535.095 257.161 534.366 257.594C533.648 258.015 533.061 258.568 532.605 259.251C532.161 259.924 531.831 260.647 531.614 261.422C531.398 262.185 531.284 262.914 531.272 263.609ZM543.56 262.003L542.193 262.037C542.25 261.137 542.455 260.277 542.808 259.457C543.173 258.636 543.668 257.907 544.295 257.269C544.922 256.62 545.668 256.107 546.534 255.731C547.411 255.355 548.396 255.167 549.49 255.167C550.447 255.167 551.302 255.298 552.054 255.56C552.806 255.811 553.438 256.215 553.951 256.773C554.475 257.32 554.874 258.021 555.147 258.875C555.42 259.73 555.557 260.755 555.557 261.952V274H553.506V261.935C553.506 260.624 553.313 259.61 552.925 258.893C552.549 258.163 552.025 257.656 551.353 257.372C550.681 257.087 549.895 256.944 548.995 256.944C548.106 256.956 547.326 257.121 546.653 257.44C545.981 257.748 545.417 258.158 544.961 258.67C544.517 259.172 544.175 259.713 543.936 260.294C543.708 260.875 543.583 261.445 543.56 262.003ZM567.896 274.342C566.688 274.342 565.577 274.12 564.563 273.675C563.561 273.231 562.684 272.604 561.932 271.795C561.191 270.986 560.616 270.029 560.206 268.924C559.807 267.808 559.607 266.589 559.607 265.267V264.532C559.607 263.108 559.818 261.821 560.24 260.67C560.661 259.519 561.242 258.534 561.983 257.713C562.723 256.893 563.567 256.266 564.512 255.833C565.469 255.389 566.472 255.167 567.52 255.167C568.694 255.167 569.736 255.378 570.647 255.799C571.559 256.209 572.322 256.796 572.938 257.56C573.564 258.312 574.037 259.206 574.356 260.243C574.675 261.268 574.834 262.402 574.834 263.644V264.891H560.838V263.148H572.801V262.909C572.778 261.872 572.567 260.903 572.168 260.003C571.781 259.092 571.2 258.351 570.425 257.782C569.651 257.212 568.682 256.927 567.52 256.927C566.654 256.927 565.857 257.11 565.127 257.474C564.41 257.839 563.789 258.363 563.265 259.046C562.752 259.719 562.353 260.522 562.068 261.456C561.795 262.379 561.658 263.404 561.658 264.532V265.267C561.658 266.292 561.806 267.25 562.103 268.138C562.41 269.015 562.843 269.79 563.401 270.462C563.971 271.135 564.643 271.659 565.418 272.035C566.193 272.411 567.047 272.599 567.981 272.599C569.075 272.599 570.044 272.399 570.887 272C571.73 271.59 572.487 270.947 573.16 270.069L574.441 271.061C574.043 271.653 573.541 272.2 572.938 272.701C572.345 273.202 571.633 273.601 570.801 273.897C569.97 274.194 569.001 274.342 567.896 274.342ZM578.68 272.752C578.68 272.354 578.805 272.018 579.056 271.744C579.318 271.459 579.671 271.317 580.115 271.317C580.571 271.317 580.93 271.454 581.192 271.727C581.454 272 581.585 272.342 581.585 272.752C581.585 273.14 581.454 273.47 581.192 273.744C580.93 274.017 580.571 274.154 580.115 274.154C579.671 274.154 579.318 274.017 579.056 273.744C578.805 273.47 578.68 273.14 578.68 272.752ZM592.369 269.676L596.829 255.509H598.265L597.41 259.32L592.745 274H591.309L592.369 269.676ZM587.737 255.509L591.651 269.762L592.488 274H591.001L585.635 255.509H587.737ZM603.819 269.71L607.63 255.509H609.732L604.366 274H602.896L603.819 269.71ZM598.555 255.509L602.947 269.557L604.058 274H602.623L597.854 259.303L597.051 255.509H598.555ZM624.908 270.685V261.148C624.908 260.271 624.725 259.514 624.361 258.875C623.996 258.237 623.461 257.748 622.754 257.406C622.048 257.064 621.176 256.893 620.14 256.893C619.183 256.893 618.328 257.064 617.576 257.406C616.836 257.736 616.249 258.186 615.816 258.756C615.394 259.314 615.184 259.935 615.184 260.619L613.133 260.602C613.133 259.907 613.304 259.234 613.646 258.585C613.987 257.936 614.472 257.354 615.098 256.842C615.725 256.329 616.471 255.925 617.337 255.628C618.214 255.321 619.177 255.167 620.225 255.167C621.547 255.167 622.709 255.389 623.711 255.833C624.725 256.278 625.517 256.944 626.087 257.833C626.657 258.722 626.941 259.838 626.941 261.183V270.121C626.941 270.759 626.987 271.419 627.078 272.103C627.181 272.787 627.323 273.351 627.505 273.795V274H625.335C625.198 273.59 625.09 273.077 625.01 272.462C624.942 271.835 624.908 271.243 624.908 270.685ZM625.386 263.233L625.42 264.806H621.404C620.356 264.806 619.416 264.903 618.584 265.096C617.764 265.278 617.069 265.552 616.5 265.917C615.93 266.27 615.491 266.697 615.184 267.198C614.887 267.7 614.739 268.269 614.739 268.907C614.739 269.568 614.904 270.172 615.235 270.719C615.577 271.266 616.055 271.704 616.67 272.035C617.297 272.354 618.038 272.513 618.892 272.513C620.031 272.513 621.034 272.302 621.9 271.881C622.777 271.459 623.501 270.907 624.07 270.223C624.64 269.54 625.022 268.793 625.215 267.984L626.104 269.164C625.956 269.733 625.682 270.32 625.284 270.924C624.896 271.516 624.389 272.075 623.763 272.599C623.136 273.111 622.396 273.533 621.541 273.863C620.698 274.182 619.741 274.342 618.67 274.342C617.462 274.342 616.408 274.114 615.508 273.658C614.62 273.202 613.925 272.582 613.423 271.795C612.933 270.998 612.688 270.098 612.688 269.095C612.688 268.184 612.882 267.369 613.27 266.651C613.657 265.922 614.215 265.307 614.944 264.806C615.685 264.293 616.574 263.906 617.61 263.644C618.659 263.37 619.832 263.233 621.131 263.233H625.386ZM637.605 272.035L643.536 255.509H645.638L638.716 274H637.229L637.605 272.035ZM632.239 255.509L638.238 272.086L638.562 274H637.059L630.12 255.509H632.239ZM651.277 255.509V274H649.244V255.509H651.277ZM648.885 250.16C648.885 249.772 649.004 249.448 649.244 249.186C649.494 248.912 649.836 248.775 650.269 248.775C650.702 248.775 651.044 248.912 651.294 249.186C651.556 249.448 651.688 249.772 651.688 250.16C651.688 250.536 651.556 250.86 651.294 251.134C651.044 251.396 650.702 251.527 650.269 251.527C649.836 251.527 649.494 251.396 649.244 251.134C649.004 250.86 648.885 250.536 648.885 250.16ZM668.709 269.728V255.509H670.76V274H668.794L668.709 269.728ZM669.085 266.31L670.145 266.275C670.145 267.438 670.008 268.508 669.734 269.488C669.461 270.468 669.034 271.323 668.453 272.052C667.872 272.781 667.12 273.345 666.197 273.744C665.274 274.142 664.163 274.342 662.864 274.342C661.964 274.342 661.138 274.216 660.386 273.966C659.646 273.704 659.008 273.294 658.472 272.735C657.937 272.177 657.521 271.454 657.225 270.565C656.94 269.676 656.797 268.6 656.797 267.335V255.509H658.831V267.369C658.831 268.36 658.939 269.186 659.156 269.847C659.384 270.508 659.691 271.038 660.079 271.437C660.477 271.835 660.933 272.12 661.446 272.291C661.958 272.462 662.511 272.547 663.104 272.547C664.607 272.547 665.792 272.257 666.658 271.676C667.535 271.095 668.156 270.331 668.521 269.386C668.897 268.429 669.085 267.403 669.085 266.31ZM678.04 259.337V274H675.989V255.509H677.955L678.04 259.337ZM677.664 263.609L676.673 263.097C676.741 262.003 676.946 260.978 677.288 260.021C677.641 259.063 678.131 258.22 678.758 257.491C679.384 256.762 680.136 256.192 681.014 255.782C681.891 255.372 682.888 255.167 684.004 255.167C684.904 255.167 685.719 255.292 686.448 255.543C687.189 255.782 687.815 256.164 688.328 256.688C688.852 257.201 689.257 257.873 689.542 258.705C689.826 259.536 689.969 260.533 689.969 261.695V274H687.935V261.764C687.935 260.533 687.741 259.57 687.354 258.875C686.978 258.181 686.448 257.685 685.765 257.389C685.092 257.092 684.312 256.944 683.423 256.944C682.375 256.944 681.486 257.161 680.757 257.594C680.04 258.015 679.453 258.568 678.997 259.251C678.553 259.924 678.222 260.647 678.006 261.422C677.789 262.185 677.675 262.914 677.664 263.609ZM689.952 262.003L688.584 262.037C688.641 261.137 688.847 260.277 689.2 259.457C689.564 258.636 690.06 257.907 690.687 257.269C691.313 256.62 692.059 256.107 692.925 255.731C693.803 255.355 694.788 255.167 695.882 255.167C696.839 255.167 697.693 255.298 698.445 255.56C699.197 255.811 699.83 256.215 700.342 256.773C700.866 257.32 701.265 258.021 701.539 258.875C701.812 259.73 701.949 260.755 701.949 261.952V274H699.898V261.935C699.898 260.624 699.704 259.61 699.317 258.893C698.941 258.163 698.417 257.656 697.745 257.372C697.072 257.087 696.286 256.944 695.386 256.944C694.498 256.956 693.717 257.121 693.045 257.44C692.373 257.748 691.809 258.158 691.353 258.67C690.909 259.172 690.567 259.713 690.328 260.294C690.1 260.875 689.974 261.445 689.952 262.003ZM706.956 272.752C706.956 272.354 707.081 272.018 707.332 271.744C707.594 271.459 707.947 271.317 708.392 271.317C708.847 271.317 709.206 271.454 709.468 271.727C709.73 272 709.861 272.342 709.861 272.752C709.861 273.14 709.73 273.47 709.468 273.744C709.206 274.017 708.847 274.154 708.392 274.154C707.947 274.154 707.594 274.017 707.332 273.744C707.081 273.47 706.956 273.14 706.956 272.752ZM722.337 272.582C723.203 272.582 724.012 272.422 724.764 272.103C725.527 271.773 726.154 271.288 726.644 270.65C727.145 270.001 727.43 269.209 727.498 268.275H729.446C729.389 269.448 729.03 270.497 728.37 271.419C727.72 272.331 726.866 273.049 725.806 273.573C724.758 274.085 723.602 274.342 722.337 274.342C721.049 274.342 719.91 274.108 718.919 273.641C717.939 273.174 717.119 272.525 716.458 271.693C715.797 270.85 715.296 269.87 714.954 268.753C714.624 267.625 714.458 266.412 714.458 265.113V264.396C714.458 263.097 714.624 261.889 714.954 260.772C715.296 259.645 715.797 258.665 716.458 257.833C717.119 256.99 717.939 256.335 718.919 255.868C719.899 255.401 721.032 255.167 722.32 255.167C723.641 255.167 724.826 255.435 725.875 255.97C726.934 256.506 727.777 257.263 728.404 258.243C729.042 259.223 729.389 260.385 729.446 261.729H727.498C727.441 260.738 727.179 259.884 726.712 259.166C726.245 258.448 725.63 257.896 724.866 257.508C724.103 257.121 723.254 256.927 722.32 256.927C721.272 256.927 720.377 257.132 719.637 257.542C718.896 257.941 718.292 258.494 717.825 259.2C717.369 259.895 717.033 260.693 716.817 261.593C716.6 262.481 716.492 263.416 716.492 264.396V265.113C716.492 266.104 716.595 267.05 716.8 267.95C717.016 268.839 717.352 269.631 717.808 270.326C718.275 271.021 718.879 271.573 719.62 271.983C720.372 272.382 721.277 272.582 722.337 272.582ZM732.437 265.045V264.481C732.437 263.137 732.631 261.895 733.018 260.755C733.405 259.616 733.958 258.631 734.676 257.799C735.405 256.967 736.277 256.323 737.291 255.868C738.305 255.401 739.432 255.167 740.674 255.167C741.928 255.167 743.061 255.401 744.075 255.868C745.089 256.323 745.961 256.967 746.69 257.799C747.419 258.631 747.977 259.616 748.365 260.755C748.752 261.895 748.946 263.137 748.946 264.481V265.045C748.946 266.389 748.752 267.631 748.365 268.771C747.977 269.898 747.419 270.878 746.69 271.71C745.972 272.542 745.106 273.191 744.092 273.658C743.078 274.114 741.95 274.342 740.708 274.342C739.455 274.342 738.322 274.114 737.308 273.658C736.294 273.191 735.422 272.542 734.693 271.71C733.964 270.878 733.405 269.898 733.018 268.771C732.631 267.631 732.437 266.389 732.437 265.045ZM734.471 264.481V265.045C734.471 266.059 734.607 267.022 734.881 267.933C735.154 268.833 735.553 269.636 736.077 270.343C736.601 271.038 737.251 271.585 738.025 271.983C738.8 272.382 739.694 272.582 740.708 272.582C741.711 272.582 742.594 272.382 743.357 271.983C744.132 271.585 744.782 271.038 745.306 270.343C745.83 269.636 746.223 268.833 746.485 267.933C746.758 267.022 746.895 266.059 746.895 265.045V264.481C746.895 263.478 746.758 262.527 746.485 261.627C746.223 260.727 745.824 259.924 745.289 259.217C744.764 258.511 744.115 257.953 743.34 257.542C742.566 257.132 741.677 256.927 740.674 256.927C739.672 256.927 738.783 257.132 738.008 257.542C737.245 257.953 736.596 258.511 736.06 259.217C735.536 259.924 735.137 260.727 734.864 261.627C734.602 262.527 734.471 263.478 734.471 264.481ZM755.115 259.337V274H753.064V255.509H755.03L755.115 259.337ZM754.739 263.609L753.748 263.097C753.816 262.003 754.021 260.978 754.363 260.021C754.716 259.063 755.206 258.22 755.833 257.491C756.46 256.762 757.212 256.192 758.089 255.782C758.966 255.372 759.963 255.167 761.08 255.167C761.98 255.167 762.794 255.292 763.523 255.543C764.264 255.782 764.891 256.164 765.403 256.688C765.927 257.201 766.332 257.873 766.617 258.705C766.902 259.536 767.044 260.533 767.044 261.695V274H765.01V261.764C765.01 260.533 764.817 259.57 764.429 258.875C764.053 258.181 763.523 257.685 762.84 257.389C762.168 257.092 761.387 256.944 760.499 256.944C759.45 256.944 758.562 257.161 757.833 257.594C757.115 258.015 756.528 258.568 756.072 259.251C755.628 259.924 755.298 260.647 755.081 261.422C754.865 262.185 754.751 262.914 754.739 263.609ZM767.027 262.003L765.66 262.037C765.717 261.137 765.922 260.277 766.275 259.457C766.639 258.636 767.135 257.907 767.762 257.269C768.388 256.62 769.135 256.107 770 255.731C770.878 255.355 771.863 255.167 772.957 255.167C773.914 255.167 774.769 255.298 775.521 255.56C776.272 255.811 776.905 256.215 777.417 256.773C777.942 257.32 778.34 258.021 778.614 258.875C778.887 259.73 779.024 260.755 779.024 261.952V274H776.973V261.935C776.973 260.624 776.779 259.61 776.392 258.893C776.016 258.163 775.492 257.656 774.82 257.372C774.148 257.087 773.361 256.944 772.461 256.944C771.573 256.956 770.792 257.121 770.12 257.44C769.448 257.748 768.884 258.158 768.428 258.67C767.984 259.172 767.642 259.713 767.403 260.294C767.175 260.875 767.05 261.445 767.027 262.003Z" fill="#84E575"/>
<path d="M157.877 272.362H150.431L148.759 277H146.342L153.129 259.227H155.18L161.979 277H159.574L157.877 272.362ZM151.139 270.433H157.182L154.154 262.12L151.139 270.433ZM174.186 272.362H166.74L165.067 277H162.65L169.438 259.227H171.488L178.288 277H175.883L174.186 272.362ZM167.448 270.433H173.49L170.463 262.12L167.448 270.433Z" fill="white"/>
<path d="M197.353 133.475C196.249 134.559 194.96 135.101 193.485 135.101C191.601 135.101 190.092 134.456 188.959 133.167C187.826 131.868 187.26 130.12 187.26 127.923C187.26 126.527 187.562 125.247 188.168 124.085C188.783 122.913 189.638 122.005 190.731 121.361C191.825 120.706 193.056 120.379 194.423 120.379C195.829 120.379 197.079 120.731 198.173 121.434C199.267 122.137 200.116 123.148 200.722 124.466C201.327 125.784 201.635 127.293 201.645 128.992V130.56C201.645 134.115 200.761 136.907 198.993 138.939C197.226 140.97 194.721 142.054 191.479 142.191L190.438 142.205V138.675L191.376 138.66C195.058 138.494 197.05 136.766 197.353 133.475ZM194.525 131.864C195.209 131.864 195.795 131.688 196.283 131.336C196.781 130.985 197.157 130.56 197.411 130.062V128.319C197.411 126.883 197.138 125.77 196.591 124.979C196.044 124.188 195.312 123.792 194.394 123.792C193.544 123.792 192.846 124.183 192.299 124.964C191.752 125.736 191.479 126.707 191.479 127.879C191.479 129.041 191.742 129.998 192.27 130.75C192.807 131.492 193.559 131.864 194.525 131.864ZM205.058 139.92C205.058 139.246 205.282 138.699 205.731 138.28C206.19 137.86 206.762 137.65 207.445 137.65C208.139 137.65 208.71 137.86 209.159 138.28C209.618 138.699 209.848 139.246 209.848 139.92C209.848 140.584 209.623 141.126 209.174 141.546C208.725 141.956 208.148 142.161 207.445 142.161C206.752 142.161 206.181 141.956 205.731 141.546C205.282 141.126 205.058 140.584 205.058 139.92ZM205.058 127.923C205.058 127.249 205.282 126.702 205.731 126.282C206.19 125.863 206.762 125.653 207.445 125.653C208.139 125.653 208.71 125.863 209.159 126.282C209.618 126.702 209.848 127.249 209.848 127.923C209.848 128.587 209.623 129.129 209.174 129.549C208.725 129.959 208.148 130.164 207.445 130.164C206.752 130.164 206.181 129.959 205.731 129.549C205.282 129.129 205.058 128.587 205.058 127.923ZM225.668 133.973H228.085V137.386H225.668V142H221.435V137.386H212.689L212.499 134.72L221.391 120.672H225.668V133.973ZM216.718 133.973H221.435V126.444L221.156 126.927L216.718 133.973ZM240.653 142H236.42V125.682L231.366 127.249V123.807L240.199 120.643H240.653V142Z" fill="white"/>
<path fill-rule="evenodd" clip-rule="evenodd" d="M409.559 262.829V260.029C409.56 257.328 408.12 254.832 405.781 253.482C403.442 252.131 400.56 252.131 398.222 253.482C395.883 254.833 394.443 257.329 394.444 260.03V262.829H391.959V269.488C391.959 275.034 396.454 279.529 402 279.529C407.545 279.529 412.041 275.034 412.041 269.488V262.829H409.559ZM402.794 272.229V274.701H401.207V272.231C399.811 271.836 398.92 270.471 399.12 269.034C399.32 267.597 400.549 266.527 402 266.527C403.45 266.527 404.679 267.597 404.879 269.034C405.078 270.471 404.188 271.836 402.792 272.231L402.794 272.229ZM407.973 262.829H396.028V260.029C396.028 256.731 398.702 254.057 402 254.057C405.298 254.057 407.972 256.731 407.972 260.029L407.973 262.829Z" fill="#80E770"/>
</svg>
